<?xml version="1.0" encoding="iso-8859-1"?>
<!-- Generator: Adobe Illustrator 19.0.0, SVG Export Plug-In . SVG Version: 6.00 Build 0)  -->
<svg version="1.1" id="Capa_1" xmlns="http://www.w3.org/2000/svg" xmlns:xlink="http://www.w3.org/1999/xlink" x="0px" y="0px"
	 viewBox="0 0 512 512" style="enable-background:new 0 0 512 512;" xml:space="preserve">
<path style="fill:#303C42;" d="M256,0C161.896,0,85.333,76.563,85.333,170.667c0,28.25,7.063,56.26,20.49,81.104L246.667,506.5
	c1.875,3.396,5.448,5.5,9.333,5.5c3.885,0,7.458-2.104,9.333-5.5l140.896-254.813c13.375-24.76,20.438-52.771,20.438-81.021
	C426.667,76.563,350.104,0,256,0z"/>
<path style="fill:#1E88E5;" d="M387.51,241.448L256,479.292l-131.458-237.75c-11.698-21.646-17.875-46.156-17.875-70.875
	c0-82.344,66.99-149.333,149.333-149.333s149.333,66.99,149.333,149.333C405.333,195.385,399.156,219.896,387.51,241.448z"/>
<path style="fill:#303C42;" d="M365.25,138.979l-20.438-5.083l10.833-18.083c2.521-4.188,1.854-9.563-1.604-13.021l-30.167-30.167
	c-3.479-3.5-8.833-4.104-13.021-1.604l-18.083,10.833l-5.083-20.438c-1.188-4.75-5.458-8.083-10.354-8.083h-42.667
	c-4.896,0-9.167,3.333-10.354,8.083l-5.104,20.438l-18.083-10.833c-4.188-2.5-9.542-1.896-13.021,1.604l-30.167,30.167
	c-3.458,3.458-4.125,8.833-1.604,13.021l10.833,18.083l-20.417,5.083c-4.75,1.188-8.083,5.458-8.083,10.354V192
	c0,4.896,3.333,9.167,8.083,10.354l20.438,5.104l-10.854,18.083c-2.521,4.188-1.854,9.563,1.604,13.021l30.167,30.167
	c3.479,3.479,8.875,4.104,13.021,1.604l18.083-10.854l5.104,20.438c1.188,4.75,5.458,8.083,10.354,8.083h42.667
	c4.896,0,9.167-3.333,10.354-8.083l5.083-20.417l18.083,10.833c4.125,2.5,9.542,1.875,13.021-1.604l30.167-30.167
	c3.458-3.458,4.125-8.833,1.604-13.021l-10.833-18.083l20.438-5.104c4.75-1.188,8.083-5.458,8.083-10.354v-42.667
	C373.333,144.438,370,140.167,365.25,138.979z M256,202.667c-17.646,0-32-14.354-32-32s14.354-32,32-32s32,14.354,32,32
	S273.646,202.667,256,202.667z"/>
<path style="fill:#E6E6E6;" d="M333.667,153.104c-3.5-0.875-6.333-3.458-7.5-6.875c-0.938-2.75-2-5.417-3.229-7.979
	c-1.563-3.229-1.396-7.021,0.458-10.104L333.063,112l-18.396-18.396l-16.146,9.667c-3.104,1.875-6.917,2-10.104,0.458
	c-2.563-1.229-5.229-2.292-7.979-3.229c-3.417-1.167-6-4-6.875-7.5L269,74.667h-26L238.417,93c-0.875,3.5-3.458,6.333-6.875,7.5
	c-2.771,0.958-5.417,2-8,3.25c-3.25,1.5-7,1.375-10.083-0.479l-16.146-9.667l-18.396,18.375l9.688,16.167
	c1.854,3.083,2.021,6.917,0.438,10.167c-1.25,2.542-2.292,5.188-3.229,7.917c-1.167,3.417-4,6-7.5,6.875L160,157.667v26
	l18.313,4.583c3.5,0.875,6.333,3.479,7.5,6.875c0.938,2.75,2,5.375,3.25,7.938c1.563,3.25,1.396,7.063-0.458,10.146l-9.688,16.167
	l18.375,18.375l16.167-9.688c3.063-1.896,6.875-2.021,10.146-0.458c2.563,1.25,5.188,2.313,7.938,3.25c3.396,1.167,6,4,6.875,7.5
	L243,266.667h26l4.563-18.313c0.875-3.5,3.458-6.333,6.875-7.5c2.729-0.938,5.375-1.979,7.917-3.229
	c3.208-1.604,7.083-1.458,10.167,0.438l16.167,9.688l18.375-18.396l-9.667-16.146c-1.854-3.063-2.021-6.854-0.479-10.083
	c1.25-2.583,2.292-5.229,3.25-8c1.167-3.417,4-6,7.5-6.875L352,183.667v-26L333.667,153.104z M256,224
	c-29.417,0-53.333-23.917-53.333-53.333s23.917-53.333,53.333-53.333c29.417,0,53.333,23.917,53.333,53.333S285.417,224,256,224z"/>
<linearGradient id="SVGID_1_" gradientUnits="userSpaceOnUse" x1="-43.3369" y1="638.8975" x2="-28.8354" y2="632.1357" gradientTransform="matrix(21.3333 0 0 -21.3333 996.3334 13791.667)">
	<stop  offset="0" style="stop-color:#FFFFFF;stop-opacity:0.2"/>
	<stop  offset="1" style="stop-color:#FFFFFF;stop-opacity:0"/>
</linearGradient>
<path style="fill:url(#SVGID_1_);" d="M256,0C161.896,0,85.333,76.563,85.333,170.667c0,28.25,7.063,56.26,20.49,81.104
	L246.667,506.5c1.875,3.396,5.448,5.5,9.333,5.5c3.885,0,7.458-2.104,9.333-5.5l140.896-254.813
	c13.375-24.76,20.438-52.771,20.438-81.021C426.667,76.563,350.104,0,256,0z"/>
<g>
</g>
<g>
</g>
<g>
</g>
<g>
</g>
<g>
</g>
<g>
</g>
<g>
</g>
<g>
</g>
<g>
</g>
<g>
</g>
<g>
</g>
<g>
</g>
<g>
</g>
<g>
</g>
<g>
</g>
</svg>
