<?xml version="1.0" encoding="iso-8859-1"?>
<!-- Generator: Adobe Illustrator 19.0.0, SVG Export Plug-In . SVG Version: 6.00 Build 0)  -->
<svg version="1.1" id="Capa_1" xmlns="http://www.w3.org/2000/svg" xmlns:xlink="http://www.w3.org/1999/xlink" x="0px" y="0px"
	 viewBox="0 0 512 512" style="enable-background:new 0 0 512 512;" xml:space="preserve">
<path style="fill:#303C42;" d="M256,0C150.135,0,64,86.135,64,192c0,141.646,177.146,310,184.688,317.104
	C250.74,511.031,253.375,512,256,512s5.26-0.969,7.313-2.896C270.854,502,448,333.646,448,192C448,86.135,361.865,0,256,0z"/>
<path style="fill:#EF4438;" d="M256,486.406C222.479,452.938,85.333,308.833,85.333,192c0-94.104,76.563-170.667,170.667-170.667
	S426.667,97.896,426.667,192C426.667,308.833,289.521,452.938,256,486.406z"/>
<circle style="fill:#303C42;" cx="256" cy="192" r="149.333"/>
<circle style="fill:#E0E0E0;" cx="256" cy="192" r="128"/>
<path style="opacity:0.1;fill:#010101;enable-background:new    ;" d="M152,213.333c0-70.583,57.417-128,128-128
	c26.643,0,51.397,8.199,71.908,22.181C328.435,80.901,294.194,64,256,64c-70.583,0-128,57.417-128,128
	c0,43.94,22.264,82.759,56.092,105.819C164.188,275.251,152,245.723,152,213.333z"/>
<path style="fill:#303C42;" d="M352,213.333h-1.078c-4.602-40.9-34.583-74.107-74.079-82.908c0.099-0.833,0.491-1.566,0.491-2.426
	c0-11.76-9.573-21.333-21.333-21.333c-11.76,0-21.333,9.573-21.333,21.333c0,0.859,0.392,1.592,0.491,2.426
	c-39.496,8.801-69.478,42.008-74.079,82.908H160c-5.896,0-10.667,4.771-10.667,10.667c0,5.896,4.771,10.667,10.667,10.667h192
	c5.896,0,10.667-4.771,10.667-10.667C362.667,218.104,357.896,213.333,352,213.333z"/>
<path style="fill:#F3F3F3;" d="M256,149.333c37.514,0,68.357,27.911,73.589,64H182.411C187.643,177.245,218.486,149.333,256,149.333
	z"/>
<path style="opacity:0.2;fill:#FFFFFF;enable-background:new    ;" d="M182.411,213.333h30.922c3.034-36.089,20.915-64,42.667-64
	C218.486,149.333,187.643,177.245,182.411,213.333z"/>
<path style="opacity:0.1;fill:#010101;enable-background:new    ;" d="M256,149.333c21.751,0,39.633,27.911,42.667,64h30.922
	C324.357,177.245,293.514,149.333,256,149.333z"/>
<linearGradient id="SVGID_1_" gradientUnits="userSpaceOnUse" x1="-43.8403" y1="639.184" x2="-27.4172" y2="631.5259" gradientTransform="matrix(21.3333 0 0 -21.3333 996.3334 13791.667)">
	<stop  offset="0" style="stop-color:#FFFFFF;stop-opacity:0.2"/>
	<stop  offset="1" style="stop-color:#FFFFFF;stop-opacity:0"/>
</linearGradient>
<path style="fill:url(#SVGID_1_);" d="M256,0C150.135,0,64,86.135,64,192c0,141.646,177.146,310,184.688,317.104
	C250.74,511.031,253.375,512,256,512s5.26-0.969,7.313-2.896C270.854,502,448,333.646,448,192C448,86.135,361.865,0,256,0z"/>
<g>
</g>
<g>
</g>
<g>
</g>
<g>
</g>
<g>
</g>
<g>
</g>
<g>
</g>
<g>
</g>
<g>
</g>
<g>
</g>
<g>
</g>
<g>
</g>
<g>
</g>
<g>
</g>
<g>
</g>
</svg>
